<?plantuml 1.2026.0?><svg xmlns="http://www.w3.org/2000/svg" xmlns:xlink="http://www.w3.org/1999/xlink" contentStyleType="text/css" data-diagram-type="DESCRIPTION" height="978px" preserveAspectRatio="none" style="width:1865px;height:978px;background:#FFFFFF;" version="1.1" viewBox="0 0 1865 978" width="1865px" zoomAndPan="magnify"><title>Telegram Deployment Diagram (Physical View)</title><defs/><g><g class="title" data-source-line="24"><text fill="#000000" font-family="Verdana" font-size="22" font-weight="bold" lengthAdjust="spacing" textLength="584.4717" x="636.101" y="35.4209">Telegram Deployment Diagram (Physical View)</text></g><!--cluster SmartPhone--><g class="cluster" data-qualified-name="SmartPhone" data-source-line="27" id="ent0002"><polygon fill="#F5F5F5" points="21,131.6094,31,121.6094,241,121.6094,241,246.2094,231,256.2094,21,256.2094,21,131.6094" style="stroke:#00008B;stroke-width:1;"/><line style="stroke:#00008B;stroke-width:1;" x1="231" x2="241" y1="131.6094" y2="121.6094"/><line style="stroke:#00008B;stroke-width:1;" x1="21" x2="231" y1="131.6094" y2="131.6094"/><line style="stroke:#00008B;stroke-width:1;" x1="231" x2="231" y1="131.6094" y2="256.2094"/><text fill="#000000" font-family="Verdana" font-size="14" font-style="italic" lengthAdjust="spacing" textLength="63.1162" x="95.4419" y="147.6045">&#171;device&#187;</text><text fill="#000000" font-family="Verdana" font-size="14" font-weight="bold" lengthAdjust="spacing" textLength="137.7578" x="58.1211" y="163.9014">User Smartphone</text></g><!--cluster Computer--><g class="cluster" data-qualified-name="Computer" data-source-line="31" id="ent0004"><polygon fill="#F5F5F5" points="265,67.6094,275,57.6094,776,57.6094,776,270.2094,766,280.2094,265,280.2094,265,67.6094" style="stroke:#00008B;stroke-width:1;"/><line style="stroke:#00008B;stroke-width:1;" x1="766" x2="776" y1="67.6094" y2="57.6094"/><line style="stroke:#00008B;stroke-width:1;" x1="265" x2="766" y1="67.6094" y2="67.6094"/><line style="stroke:#00008B;stroke-width:1;" x1="766" x2="766" y1="67.6094" y2="280.2094"/><text fill="#000000" font-family="Verdana" font-size="14" font-style="italic" lengthAdjust="spacing" textLength="63.1162" x="484.9419" y="83.6045">&#171;device&#187;</text><text fill="#000000" font-family="Verdana" font-size="14" font-weight="bold" lengthAdjust="spacing" textLength="118.5352" x="457.2324" y="99.9014">User Computer</text></g><!--cluster Web Browser--><g class="cluster" data-qualified-name="Computer.Web Browser" data-source-line="33" id="ent0006"><polygon fill="#F5F5F5" points="497,131.6094,507,121.6094,752,121.6094,752,246.2094,742,256.2094,497,256.2094,497,131.6094" style="stroke:#00008B;stroke-width:1;"/><line style="stroke:#00008B;stroke-width:1;" x1="742" x2="752" y1="131.6094" y2="121.6094"/><line style="stroke:#00008B;stroke-width:1;" x1="497" x2="742" y1="131.6094" y2="131.6094"/><line style="stroke:#00008B;stroke-width:1;" x1="742" x2="742" y1="131.6094" y2="256.2094"/><text fill="#000000" font-family="Verdana" font-size="14" font-style="italic" lengthAdjust="spacing" textLength="179.9492" x="530.5254" y="147.6045">&#171;execution environment&#187;</text><text fill="#000000" font-family="Verdana" font-size="14" font-weight="bold" lengthAdjust="spacing" textLength="104.6924" x="568.1538" y="163.9014">Web Browser</text></g><!--cluster BotServer--><g class="cluster" data-qualified-name="BotServer" data-source-line="39" id="ent0008"><polygon fill="#F5F5F5" points="800,139.7594,810,129.7594,1022,129.7594,1022,238.0594,1012,248.0594,800,248.0594,800,139.7594" style="stroke:#00008B;stroke-width:1;"/><line style="stroke:#00008B;stroke-width:1;" x1="1012" x2="1022" y1="139.7594" y2="129.7594"/><line style="stroke:#00008B;stroke-width:1;" x1="800" x2="1012" y1="139.7594" y2="139.7594"/><line style="stroke:#00008B;stroke-width:1;" x1="1012" x2="1012" y1="139.7594" y2="248.0594"/><text fill="#000000" font-family="Verdana" font-size="14" font-style="italic" lengthAdjust="spacing" textLength="61.4482" x="876.2759" y="155.7545">&#171;server&#187;</text><text fill="#000000" font-family="Verdana" font-size="14" font-weight="bold" lengthAdjust="spacing" textLength="146.3643" x="833.8179" y="172.0514">Third-Party Server</text></g><!--cluster External Ecosystem--><g class="cluster" data-qualified-name="External Ecosystem" data-source-line="43" id="ent0010"><path d="M1516.6934,779.0816 C1523.495,768.522 1531.0878,767.0813 1540.3397,776.1261 C1546.2141,766.7628 1554.4241,765.7292 1562.0379,773.9837 C1568.3592,762.7997 1580.4899,761.0461 1586.7983,773.9969 C1591.9535,765.2951 1600.0889,764.5724 1605.6696,773.5426 C1611.5086,760.3971 1622.2738,760.4642 1630.0544,771.5922 C1635.8173,761.3187 1646.2627,759.7037 1652.6104,770.9801 C1657.3934,760.6321 1667.8051,759.2178 1674.0159,769.4985 C1680.9426,760.2765 1690.132,757.9216 1696.4556,770.1301 C1705.6861,759.4857 1714.5122,760.7764 1720.2662,773.65 C1725.3936,765.0084 1734.5122,762.3298 1740.7353,772.4549 C1749.1683,763.3046 1757.333,761.3751 1763.8273,774.4677 C1771.3858,764.2866 1781.6459,764.4524 1788.913,774.8233 C1797.1805,765.3155 1803.3154,766.8083 1809.5414,776.9649 C1821.1072,763.8876 1832.3409,768.7749 1838,783.0994 C1838.762,782.2814 1839.4669,782.6416 1839.7402,783.5828 C1852.7255,786.6585 1856.7519,798.3926 1846.3173,807.8229 C1858.651,811.0455 1858.6706,820.8326 1850.5089,828.259 C1858.6737,834.8257 1856.3634,842.7292 1847.8222,846.8863 C1855.1339,863.3257 1850.141,873.8522 1831,873.6894 C1832.1398,873.5144 1832.7843,874.2586 1832.2022,875.3387 C1826.9951,884.5204 1819.0476,885.6071 1811.7506,877.8642 C1804.7281,890.1105 1795.8974,887.152 1789.0479,877.6834 C1783.7161,890.6001 1776.4403,891.6044 1767.482,881.01 C1759.6589,891.3809 1750.4394,891.8672 1744.0549,879.5259 C1739.1755,890.8674 1730.912,894.1395 1721.7845,883.9122 C1714.4118,894.9255 1703.435,893.3442 1697.3943,882.4305 C1691.9587,896.6807 1681.7726,894.8995 1673.1543,885.7239 C1663.9385,893.4495 1656.3166,894.6387 1650.858,881.6748 C1645.6133,893.6775 1635.6534,892.4379 1628.8763,883.2657 C1621.1847,893.9968 1612.0373,894.6656 1605.5529,882.0592 C1597.916,891.6291 1588.5407,886.8096 1585.2078,877.4365 C1579.0535,888.0264 1570.98,888.1638 1563.7483,878.5828 C1556.451,890.0356 1548.1884,888.2573 1541.0743,878.3879 C1524.8398,890.0038 1513.2462,886.1398 1508,866.6894 C1508.8967,865.5823 1510.221,865.5981 1510.7601,867.0718 C1499.2181,864.5728 1497.7002,856.3765 1505.6235,848.4951 C1492.2292,846.3218 1488.7524,840.0964 1496.7154,828.4377 C1487.3422,818.4831 1491.1091,809.7747 1502.9173,805.5628 C1492.3529,789.5994 1499.0645,781.1954 1515,776.0994 C1516.8319,776.3088 1517.4295,777.4139 1516.6934,779.0816" fill="#E0FFFF" style="stroke:#008B8B;stroke-width:1;"/><text fill="#000000" font-family="Verdana" font-size="14" font-weight="bold" lengthAdjust="spacing" textLength="154.8203" x="1595.5898" y="794.0945">External Ecosystem</text></g><!--cluster Telegram Global Infrastructure (Primary DC)--><g class="cluster" data-qualified-name="Telegram Global Infrastructure .Primary DC." data-source-line="49" id="ent0013"><path d="M162.6001,350.0603 C193.3889,307.2936 227.2721,304.2383 256.4785,351.7066 C286.7539,305.9115 320.8497,300.121 352.6863,350.1389 C378.0166,306.5489 404.8032,299.4022 440.3642,339.4088 C469.2188,287.357 507.6552,287.4734 541.1544,334.6932 C568.4543,291.1128 603.7734,286.3577 631.488,334.2838 C666.2915,286.9586 697.654,290.9432 722.8908,343.0757 C747.0448,287.2141 779.1025,290.3601 818.6148,327.22 C855.9145,291.9954 883.0204,291.8294 904.0709,343.2468 C929.55,287.8526 971.915,287.6663 1004.1645,336.7611 C1038.6267,291.3224 1070.3641,302.7552 1094.6169,347.052 C1124.9754,300.6116 1155.8747,300.1111 1191.5941,341.1061 C1223.7509,303.7955 1261.4881,299.2089 1284.8324,350.3912 C1315.6927,300.6925 1348.3153,306.2485 1384.3224,344.5738 C1406.047,304.2193 1445.9037,299.2135 1468,344.2094 C1472.9779,342.6812 1475.3417,344.3007 1475.4564,349.5555 C1525.3454,372.7926 1521.9126,406.7785 1483.1229,437.7263 C1531.5483,462.8521 1539.9333,510.7483 1485.7406,538.5386 C1529.5066,558.4258 1532.1108,603.5673 1491.4545,628.7987 C1528.5925,657.8896 1528.54,694.9057 1481.9296,714.7116 C1522.0237,744.7031 1516.0685,790.567 1473.0799,813.0844 C1513.2818,848.9019 1499.6322,873.1278 1461,897.6894 C1463.475,897.9089 1464.535,899.1836 1463.1017,901.5376 C1433.3981,950.2369 1402.6651,944.1096 1368.8863,905.9584 C1346.9477,948.4595 1310.071,949.2325 1281.4934,913.3616 C1252.4507,957.659 1221.0128,944.7711 1196.2942,908.7734 C1165.9605,956.6562 1121.329,954.5557 1096.2177,903.4914 C1071.5151,945.0959 1042.6782,955.4711 1005.1125,918.3835 C968.9894,967.9189 937.5189,954.2613 909.0779,910.478 C886.7774,962.5479 844.5997,971.4803 810.4537,921.9798 C778.0174,964.288 748.0736,966.0716 718.2678,919.2588 C689.9822,960.4355 654.15,952.4901 635.187,910.0013 C611.7602,952.8973 572.8228,965.7078 541.8445,917.7605 C504.1795,964.454 470.8715,956.4757 439.9742,910.3341 C413.0443,952.1963 378.4504,954.3107 351.8925,909.954 C325.5466,963.6429 280.1235,958.2575 250.3678,913.4693 C209.8668,950.2676 169.7778,945.197 150,890.6894 C159.8752,888.6443 165.8851,894.1073 164.0695,904.2193 C118.9328,883.2219 106.3639,845.8865 147.8288,809.9667 C107.9685,781.8285 99.3755,752.0362 144.53,720.7544 C96.8188,692.1838 106.078,662.3551 144.1352,633.3969 C100.1809,600.9993 103.2278,560.2992 155.1676,539.1237 C101.5419,512.3251 97.6571,471.5591 148.5003,437.8807 C99.935,398.4712 109.825,368.5355 157,337.2094 C164.2871,338.7656 166.5086,343.6253 162.6001,350.0603" fill="#E0FFFF" style="stroke:#008B8B;stroke-width:1;"/><text fill="#000000" font-family="Verdana" font-size="14" font-weight="bold" lengthAdjust="spacing" textLength="351.5654" x="633.2173" y="355.2045">Telegram Global Infrastructure (Primary DC)</text></g><!--cluster Edge--><g class="cluster" data-qualified-name="Telegram Global Infrastructure .Primary DC..Edge" data-source-line="51" id="ent0014"><polygon fill="#F5F5F5" points="381,382.2094,391,372.2094,802,372.2094,802,480.7994,792,490.7994,381,490.7994,381,382.2094" style="stroke:#00008B;stroke-width:1;"/><line style="stroke:#00008B;stroke-width:1;" x1="792" x2="802" y1="382.2094" y2="372.2094"/><line style="stroke:#00008B;stroke-width:1;" x1="381" x2="792" y1="382.2094" y2="382.2094"/><line style="stroke:#00008B;stroke-width:1;" x1="792" x2="792" y1="382.2094" y2="490.7994"/><text fill="#000000" font-family="Verdana" font-size="14" font-weight="bold" lengthAdjust="spacing" textLength="191.4268" x="491.7866" y="398.2045">Edge / Connection Layer</text></g><!--cluster Compute--><g class="cluster" data-qualified-name="Telegram Global Infrastructure .Primary DC..Compute" data-source-line="57" id="ent0017"><polygon fill="#F5F5F5" points="173,549.7994,183,539.7994,1186,539.7994,1186,704.0994,1176,714.0994,173,714.0994,173,549.7994" style="stroke:#00008B;stroke-width:1;"/><line style="stroke:#00008B;stroke-width:1;" x1="1176" x2="1186" y1="549.7994" y2="539.7994"/><line style="stroke:#00008B;stroke-width:1;" x1="173" x2="1176" y1="549.7994" y2="549.7994"/><line style="stroke:#00008B;stroke-width:1;" x1="1176" x2="1176" y1="549.7994" y2="714.0994"/><text fill="#000000" font-family="Verdana" font-size="14" font-weight="bold" lengthAdjust="spacing" textLength="239.2305" x="555.8848" y="565.7945">Compute Cluster (App Engine)</text></g><!--cluster Pod / Container--><g class="cluster" data-qualified-name="Telegram Global Infrastructure .Primary DC..Compute.Pod . Container" data-source-line="58" id="ent0018"><polygon fill="#F5F5F5" points="197,597.7994,207,587.7994,1162,587.7994,1162,680.0994,1152,690.0994,197,690.0994,197,597.7994" style="stroke:#00008B;stroke-width:1;"/><line style="stroke:#00008B;stroke-width:1;" x1="1152" x2="1162" y1="597.7994" y2="587.7994"/><line style="stroke:#00008B;stroke-width:1;" x1="197" x2="1152" y1="597.7994" y2="597.7994"/><line style="stroke:#00008B;stroke-width:1;" x1="1152" x2="1152" y1="597.7994" y2="690.0994"/><text fill="#000000" font-family="Verdana" font-size="14" font-weight="bold" lengthAdjust="spacing" textLength="121.9258" x="614.5371" y="613.7945">Pod / Container</text></g><!--cluster BrokerNode--><g class="cluster" data-qualified-name="Telegram Global Infrastructure .Primary DC..BrokerNode" data-source-line="68" id="ent0024"><polygon fill="#F5F5F5" points="1063,781.2394,1073,771.2394,1279,771.2394,1279,863.5394,1269,873.5394,1063,873.5394,1063,781.2394" style="stroke:#00008B;stroke-width:1;"/><line style="stroke:#00008B;stroke-width:1;" x1="1269" x2="1279" y1="781.2394" y2="771.2394"/><line style="stroke:#00008B;stroke-width:1;" x1="1063" x2="1269" y1="781.2394" y2="781.2394"/><line style="stroke:#00008B;stroke-width:1;" x1="1269" x2="1269" y1="781.2394" y2="873.5394"/><text fill="#000000" font-family="Verdana" font-size="14" font-weight="bold" lengthAdjust="spacing" textLength="140.0273" x="1096.9863" y="797.2345">Event Bus Cluster</text></g><!--cluster CacheNode--><g class="cluster" data-qualified-name="Telegram Global Infrastructure .Primary DC..CacheNode" data-source-line="72" id="ent0026"><polygon fill="#F5F5F5" points="166,773.0994,176,763.0994,387,763.0994,387,871.6894,377,881.6894,166,881.6894,166,773.0994" style="stroke:#00008B;stroke-width:1;"/><line style="stroke:#00008B;stroke-width:1;" x1="377" x2="387" y1="773.0994" y2="763.0994"/><line style="stroke:#00008B;stroke-width:1;" x1="166" x2="377" y1="773.0994" y2="773.0994"/><line style="stroke:#00008B;stroke-width:1;" x1="377" x2="377" y1="773.0994" y2="881.6894"/><text fill="#000000" font-family="Verdana" font-size="14" font-weight="bold" lengthAdjust="spacing" textLength="145.9883" x="199.5059" y="789.0945">In-Memory Cluster</text></g><!--cluster DBServer--><g class="cluster" data-qualified-name="Telegram Global Infrastructure .Primary DC..DBServer" data-source-line="76" id="ent0028"><polygon fill="#F5F5F5" points="411,773.0994,421,763.0994,842,763.0994,842,871.6894,832,881.6894,411,881.6894,411,773.0994" style="stroke:#00008B;stroke-width:1;"/><line style="stroke:#00008B;stroke-width:1;" x1="832" x2="842" y1="773.0994" y2="763.0994"/><line style="stroke:#00008B;stroke-width:1;" x1="411" x2="832" y1="773.0994" y2="773.0994"/><line style="stroke:#00008B;stroke-width:1;" x1="832" x2="832" y1="773.0994" y2="881.6894"/><text fill="#000000" font-family="Verdana" font-size="14" font-weight="bold" lengthAdjust="spacing" textLength="123.6006" x="560.6997" y="789.0945">Storage Cluster</text></g><!--entity mobile_app--><g class="entity" data-qualified-name="SmartPhone.mobile_app" data-source-line="28" id="ent0003"><rect fill="#FFFFFF" height="62.5938" rx="2.5" ry="2.5" style="stroke:#000000;stroke-width:1;" width="188.7021" x="36.65" y="177.6094"/><rect fill="#FFFFFF" height="10" style="stroke:#000000;stroke-width:1;" width="15" x="205.3521" y="182.6094"/><rect fill="#FFFFFF" height="2" style="stroke:#000000;stroke-width:1;" width="4" x="203.3521" y="184.6094"/><rect fill="#FFFFFF" height="2" style="stroke:#000000;stroke-width:1;" width="4" x="203.3521" y="188.6094"/><text fill="#000000" font-family="Verdana" font-size="14" lengthAdjust="spacing" textLength="148.7021" x="51.65" y="210.6045">Telegram Mobile App</text><text fill="#000000" font-family="Verdana" font-size="14" lengthAdjust="spacing" textLength="93.8711" x="51.65" y="226.9014">(iOS/Android)</text></g><!--entity desktop_app--><g class="entity" data-qualified-name="Computer.desktop_app" data-source-line="32" id="ent0005"><rect fill="#FFFFFF" height="46.2969" rx="2.5" ry="2.5" style="stroke:#000000;stroke-width:1;" width="200.5146" x="280.74" y="185.7594"/><rect fill="#FFFFFF" height="10" style="stroke:#000000;stroke-width:1;" width="15" x="461.2546" y="190.7594"/><rect fill="#FFFFFF" height="2" style="stroke:#000000;stroke-width:1;" width="4" x="459.2546" y="192.7594"/><rect fill="#FFFFFF" height="2" style="stroke:#000000;stroke-width:1;" width="4" x="459.2546" y="196.7594"/><text fill="#000000" font-family="Verdana" font-size="14" lengthAdjust="spacing" textLength="160.5146" x="295.74" y="218.7545">Telegram Desktop App</text></g><!--entity web_app--><g class="entity" data-qualified-name="Computer.Web Browser.web_app" data-source-line="34" id="ent0007"><rect fill="#FFFFFF" height="62.5938" rx="2.5" ry="2.5" style="stroke:#000000;stroke-width:1;" width="187.3008" x="516.35" y="177.6094"/><rect fill="#FFFFFF" height="10" style="stroke:#000000;stroke-width:1;" width="15" x="683.6508" y="182.6094"/><rect fill="#FFFFFF" height="2" style="stroke:#000000;stroke-width:1;" width="4" x="681.6508" y="184.6094"/><rect fill="#FFFFFF" height="2" style="stroke:#000000;stroke-width:1;" width="4" x="681.6508" y="188.6094"/><text fill="#000000" font-family="Verdana" font-size="14" lengthAdjust="spacing" textLength="147.3008" x="531.35" y="210.6045">Telegram Web Client</text><text fill="#000000" font-family="Verdana" font-size="14" lengthAdjust="spacing" textLength="97.084" x="531.35" y="226.9014">(WebA/WebK)</text></g><!--entity ext_bot_logic--><g class="entity" data-qualified-name="BotServer.ext_bot_logic" data-source-line="40" id="ent0009"><rect fill="#FFFFFF" height="46.2969" rx="2.5" ry="2.5" style="stroke:#000000;stroke-width:1;" width="167.7295" x="816.14" y="185.7594"/><rect fill="#FFFFFF" height="10" style="stroke:#000000;stroke-width:1;" width="15" x="963.8695" y="190.7594"/><rect fill="#FFFFFF" height="2" style="stroke:#000000;stroke-width:1;" width="4" x="961.8695" y="192.7594"/><rect fill="#FFFFFF" height="2" style="stroke:#000000;stroke-width:1;" width="4" x="961.8695" y="196.7594"/><text fill="#000000" font-family="Verdana" font-size="14" lengthAdjust="spacing" textLength="127.7295" x="831.14" y="218.7545">External Bot Logic</text></g><!--entity sms_prov--><g class="entity" data-qualified-name="External Ecosystem.sms_prov" data-source-line="44" id="ent0011"><rect fill="#FFFFFF" height="62.5938" rx="2.5" ry="2.5" style="stroke:#000000;stroke-width:1;" width="142.9219" x="1515.54" y="803.0994"/><rect fill="#FFFFFF" height="10" style="stroke:#000000;stroke-width:1;" width="15" x="1638.4619" y="808.0994"/><rect fill="#FFFFFF" height="2" style="stroke:#000000;stroke-width:1;" width="4" x="1636.4619" y="810.0994"/><rect fill="#FFFFFF" height="2" style="stroke:#000000;stroke-width:1;" width="4" x="1636.4619" y="814.0994"/><text fill="#000000" font-family="Verdana" font-size="14" lengthAdjust="spacing" textLength="99.791" x="1530.54" y="836.0945">SMS Providers</text><text fill="#000000" font-family="Verdana" font-size="14" lengthAdjust="spacing" textLength="102.9219" x="1530.54" y="852.3914">(Twilio/Others)</text></g><!--entity push_prov--><g class="entity" data-qualified-name="External Ecosystem.push_prov" data-source-line="45" id="ent0012"><rect fill="#FFFFFF" height="62.5938" rx="2.5" ry="2.5" style="stroke:#000000;stroke-width:1;" width="136.9678" x="1693.52" y="803.0994"/><rect fill="#FFFFFF" height="10" style="stroke:#000000;stroke-width:1;" width="15" x="1810.4878" y="808.0994"/><rect fill="#FFFFFF" height="2" style="stroke:#000000;stroke-width:1;" width="4" x="1808.4878" y="810.0994"/><rect fill="#FFFFFF" height="2" style="stroke:#000000;stroke-width:1;" width="4" x="1808.4878" y="814.0994"/><text fill="#000000" font-family="Verdana" font-size="14" lengthAdjust="spacing" textLength="96.9678" x="1708.52" y="836.0945">Push Services</text><text fill="#000000" font-family="Verdana" font-size="14" lengthAdjust="spacing" textLength="81.334" x="1708.52" y="852.3914">(FCM/APNs)</text></g><!--entity mtproto_gw--><g class="entity" data-qualified-name="Telegram Global Infrastructure .Primary DC..Edge.mtproto_gw" data-source-line="52" id="ent0015"><rect fill="#FFFFFF" height="62.5938" rx="2.5" ry="2.5" style="stroke:#000000;stroke-width:1;" width="195.9551" x="397.02" y="412.2094"/><rect fill="#FFFFFF" height="10" style="stroke:#000000;stroke-width:1;" width="15" x="572.9751" y="417.2094"/><rect fill="#FFFFFF" height="2" style="stroke:#000000;stroke-width:1;" width="4" x="570.9751" y="419.2094"/><rect fill="#FFFFFF" height="2" style="stroke:#000000;stroke-width:1;" width="4" x="570.9751" y="423.2094"/><text fill="#000000" font-family="Verdana" font-size="14" lengthAdjust="spacing" textLength="123.7441" x="412.02" y="445.2045">MTProto Gateway</text><text fill="#000000" font-family="Verdana" font-size="14" lengthAdjust="spacing" textLength="155.9551" x="412.02" y="461.5014">(Connection Manager)</text></g><!--entity bot_gw--><g class="entity" data-qualified-name="Telegram Global Infrastructure .Primary DC..Edge.bot_gw" data-source-line="53" id="ent0016"><rect fill="#FFFFFF" height="62.5938" rx="2.5" ry="2.5" style="stroke:#000000;stroke-width:1;" width="157.8174" x="628.09" y="412.2094"/><rect fill="#FFFFFF" height="10" style="stroke:#000000;stroke-width:1;" width="15" x="765.9074" y="417.2094"/><rect fill="#FFFFFF" height="2" style="stroke:#000000;stroke-width:1;" width="4" x="763.9074" y="419.2094"/><rect fill="#FFFFFF" height="2" style="stroke:#000000;stroke-width:1;" width="4" x="763.9074" y="423.2094"/><text fill="#000000" font-family="Verdana" font-size="14" lengthAdjust="spacing" textLength="117.8174" x="643.09" y="445.2045">Bot API Frontend</text><text fill="#000000" font-family="Verdana" font-size="14" lengthAdjust="spacing" textLength="64.5586" x="643.09" y="461.5014">(Custom)</text></g><!--entity auth_svc--><g class="entity" data-qualified-name="Telegram Global Infrastructure .Primary DC..Compute.Pod . Container.auth_svc" data-source-line="59" id="ent0019"><rect fill="#FFFFFF" height="46.2969" rx="2.5" ry="2.5" style="stroke:#000000;stroke-width:1;" width="129.0039" x="386.5" y="627.7994"/><rect fill="#FFFFFF" height="10" style="stroke:#000000;stroke-width:1;" width="15" x="495.5039" y="632.7994"/><rect fill="#FFFFFF" height="2" style="stroke:#000000;stroke-width:1;" width="4" x="493.5039" y="634.7994"/><rect fill="#FFFFFF" height="2" style="stroke:#000000;stroke-width:1;" width="4" x="493.5039" y="638.7994"/><text fill="#000000" font-family="Verdana" font-size="14" lengthAdjust="spacing" textLength="89.0039" x="401.5" y="660.7945">Auth Service</text></g><!--entity msg_svc--><g class="entity" data-qualified-name="Telegram Global Infrastructure .Primary DC..Compute.Pod . Container.msg_svc" data-source-line="60" id="ent0020"><rect fill="#FFFFFF" height="46.2969" rx="2.5" ry="2.5" style="stroke:#000000;stroke-width:1;" width="157.5508" x="550.22" y="627.7994"/><rect fill="#FFFFFF" height="10" style="stroke:#000000;stroke-width:1;" width="15" x="687.7708" y="632.7994"/><rect fill="#FFFFFF" height="2" style="stroke:#000000;stroke-width:1;" width="4" x="685.7708" y="634.7994"/><rect fill="#FFFFFF" height="2" style="stroke:#000000;stroke-width:1;" width="4" x="685.7708" y="638.7994"/><text fill="#000000" font-family="Verdana" font-size="14" lengthAdjust="spacing" textLength="117.5508" x="565.22" y="660.7945">Message Service</text></g><!--entity chan_svc--><g class="entity" data-qualified-name="Telegram Global Infrastructure .Primary DC..Compute.Pod . Container.chan_svc" data-source-line="61" id="ent0021"><rect fill="#FFFFFF" height="46.2969" rx="2.5" ry="2.5" style="stroke:#000000;stroke-width:1;" width="153.668" x="743.17" y="627.7994"/><rect fill="#FFFFFF" height="10" style="stroke:#000000;stroke-width:1;" width="15" x="876.838" y="632.7994"/><rect fill="#FFFFFF" height="2" style="stroke:#000000;stroke-width:1;" width="4" x="874.838" y="634.7994"/><rect fill="#FFFFFF" height="2" style="stroke:#000000;stroke-width:1;" width="4" x="874.838" y="638.7994"/><text fill="#000000" font-family="Verdana" font-size="14" lengthAdjust="spacing" textLength="113.668" x="758.17" y="660.7945">Channel Service</text></g><!--entity media_svc--><g class="entity" data-qualified-name="Telegram Global Infrastructure .Primary DC..Compute.Pod . Container.media_svc" data-source-line="62" id="ent0022"><rect fill="#FFFFFF" height="46.2969" rx="2.5" ry="2.5" style="stroke:#000000;stroke-width:1;" width="138.2393" x="212.88" y="627.7994"/><rect fill="#FFFFFF" height="10" style="stroke:#000000;stroke-width:1;" width="15" x="331.1193" y="632.7994"/><rect fill="#FFFFFF" height="2" style="stroke:#000000;stroke-width:1;" width="4" x="329.1193" y="634.7994"/><rect fill="#FFFFFF" height="2" style="stroke:#000000;stroke-width:1;" width="4" x="329.1193" y="638.7994"/><text fill="#000000" font-family="Verdana" font-size="14" lengthAdjust="spacing" textLength="98.2393" x="227.88" y="660.7945">Media Service</text></g><!--entity push_svc--><g class="entity" data-qualified-name="Telegram Global Infrastructure .Primary DC..Compute.Pod . Container.push_svc" data-source-line="63" id="ent0023"><rect fill="#FFFFFF" height="46.2969" rx="2.5" ry="2.5" style="stroke:#000000;stroke-width:1;" width="214.4531" x="931.77" y="627.7994"/><rect fill="#FFFFFF" height="10" style="stroke:#000000;stroke-width:1;" width="15" x="1126.2231" y="632.7994"/><rect fill="#FFFFFF" height="2" style="stroke:#000000;stroke-width:1;" width="4" x="1124.2231" y="634.7994"/><rect fill="#FFFFFF" height="2" style="stroke:#000000;stroke-width:1;" width="4" x="1124.2231" y="638.7994"/><text fill="#000000" font-family="Verdana" font-size="14" lengthAdjust="spacing" textLength="174.4531" x="946.77" y="660.7945">Push Notification Service</text></g><!--entity kafka--><g class="entity" data-qualified-name="Telegram Global Infrastructure .Primary DC..BrokerNode.kafka" data-source-line="69" id="ent0025"><rect fill="#FFFFFF" height="46.2969" rx="2.5" ry="2.5" style="stroke:#000000;stroke-width:1;" width="177.416" x="1082.29" y="811.2394"/><rect fill="#FFFFFF" height="10" style="stroke:#000000;stroke-width:1;" width="15" x="1239.706" y="816.2394"/><rect fill="#FFFFFF" height="2" style="stroke:#000000;stroke-width:1;" width="4" x="1237.706" y="818.2394"/><rect fill="#FFFFFF" height="2" style="stroke:#000000;stroke-width:1;" width="4" x="1237.706" y="822.2394"/><text fill="#000000" font-family="Verdana" font-size="14" lengthAdjust="spacing" textLength="137.416" x="1097.29" y="844.2345">Kafka / Internal Bus</text></g><!--entity cache--><g class="entity" data-qualified-name="Telegram Global Infrastructure .Primary DC..CacheNode.cache" data-source-line="73" id="ent0027"><rect fill="#FFFFFF" height="62.5938" rx="2.5" ry="2.5" style="stroke:#000000;stroke-width:1;" width="125.0459" x="245.48" y="803.0994"/><rect fill="#FFFFFF" height="10" style="stroke:#000000;stroke-width:1;" width="15" x="350.5259" y="808.0994"/><rect fill="#FFFFFF" height="2" style="stroke:#000000;stroke-width:1;" width="4" x="348.5259" y="810.0994"/><rect fill="#FFFFFF" height="2" style="stroke:#000000;stroke-width:1;" width="4" x="348.5259" y="814.0994"/><text fill="#000000" font-family="Verdana" font-size="14" lengthAdjust="spacing" textLength="85.0459" x="260.48" y="836.0945">State Cache</text><text fill="#000000" font-family="Verdana" font-size="14" lengthAdjust="spacing" textLength="49.335" x="260.48" y="852.3914">(Redis)</text></g><!--entity sharded_db--><g class="entity" data-qualified-name="Telegram Global Infrastructure .Primary DC..DBServer.sharded_db" data-source-line="77" id="ent0029"><rect fill="#FFFFFF" height="62.5938" rx="2.5" ry="2.5" style="stroke:#000000;stroke-width:1;" width="160.4834" x="665.76" y="803.0994"/><rect fill="#FFFFFF" height="10" style="stroke:#000000;stroke-width:1;" width="15" x="806.2434" y="808.0994"/><rect fill="#FFFFFF" height="2" style="stroke:#000000;stroke-width:1;" width="4" x="804.2434" y="810.0994"/><rect fill="#FFFFFF" height="2" style="stroke:#000000;stroke-width:1;" width="4" x="804.2434" y="814.0994"/><text fill="#000000" font-family="Verdana" font-size="14" lengthAdjust="spacing" textLength="120.4834" x="680.76" y="836.0945">Sharded Chat DB</text><text fill="#000000" font-family="Verdana" font-size="14" lengthAdjust="spacing" textLength="116.9902" x="680.76" y="852.3914">(Custom Engine)</text></g><!--entity dfs--><g class="entity" data-qualified-name="Telegram Global Infrastructure .Primary DC..DBServer.dfs" data-source-line="78" id="ent0030"><rect fill="#FFFFFF" height="62.5938" rx="2.5" ry="2.5" style="stroke:#000000;stroke-width:1;" width="203.3994" x="427.3" y="803.0994"/><rect fill="#FFFFFF" height="10" style="stroke:#000000;stroke-width:1;" width="15" x="610.6994" y="808.0994"/><rect fill="#FFFFFF" height="2" style="stroke:#000000;stroke-width:1;" width="4" x="608.6994" y="810.0994"/><rect fill="#FFFFFF" height="2" style="stroke:#000000;stroke-width:1;" width="4" x="608.6994" y="814.0994"/><text fill="#000000" font-family="Verdana" font-size="14" lengthAdjust="spacing" textLength="163.3994" x="442.3" y="836.0945">Distributed File System</text><text fill="#000000" font-family="Verdana" font-size="14" lengthAdjust="spacing" textLength="106.8184" x="442.3" y="852.3914">(Local/Remote)</text></g><!--link mobile_app to mtproto_gw--><g class="link" data-entity-1="ent0003" data-entity-2="ent0015" data-link-type="dependency" data-source-line="85" id="lnk31"><path d="M159.53,240.3194 C181.11,262.2694 212.2,291.6994 243,313.2094 C299.95,352.9694 365.3059,385.7308 417.3559,409.3408" fill="none" id="mobile_app-to-mtproto_gw" style="stroke:#000000;stroke-width:1;"/><polygon fill="#000000" points="422.82,411.8194,416.2762,404.4588,418.2666,409.7539,412.9714,411.7443,422.82,411.8194" style="stroke:#000000;stroke-width:1;"/><text fill="#000000" font-family="Verdana" font-size="13" lengthAdjust="spacing" textLength="171.3931" x="244" y="309.2763">MTProto (TCP/Obfuscated)</text></g><!--link desktop_app to mtproto_gw--><g class="link" data-entity-1="ent0005" data-entity-2="ent0015" data-link-type="dependency" data-source-line="86" id="lnk32"><path d="M391.93,232.2094 C412.44,274.0494 454.0699,358.9914 477.3499,406.5014" fill="none" id="desktop_app-to-mtproto_gw" style="stroke:#000000;stroke-width:1;"/><polygon fill="#000000" points="479.99,411.8894,479.6218,402.0474,477.7899,407.3994,472.4379,405.5675,479.99,411.8894" style="stroke:#000000;stroke-width:1;"/><text fill="#000000" font-family="Verdana" font-size="13" lengthAdjust="spacing" textLength="92.479" x="432.17" y="309.2763">MTProto (TCP)</text></g><!--link web_app to mtproto_gw--><g class="link" data-entity-1="ent0007" data-entity-2="ent0015" data-link-type="dependency" data-source-line="87" id="lnk33"><path d="M594.97,240.3194 C572.99,284.7694 534.9697,361.6711 512.8797,406.3411" fill="none" id="web_app-to-mtproto_gw" style="stroke:#000000;stroke-width:1;"/><polygon fill="#000000" points="510.22,411.7194,517.795,405.425,512.4364,407.2374,510.6239,401.8788,510.22,411.7194" style="stroke:#000000;stroke-width:1;"/><text fill="#000000" font-family="Verdana" font-size="13" lengthAdjust="spacing" textLength="186.8306" x="567.18" y="309.2763">MTProto (WebSocket/HTTPS)</text></g><!--link ext_bot_logic to bot_gw--><g class="link" data-entity-1="ent0009" data-entity-2="ent0016" data-link-type="dependency" data-source-line="90" id="lnk34"><path d="M881.49,232.2094 C846.77,274.0494 775.6507,359.7614 736.2407,407.2714" fill="none" id="ext_bot_logic-to-bot_gw" style="stroke:#000000;stroke-width:1;"/><polygon fill="#000000" points="732.41,411.8894,741.2347,407.5162,735.6022,408.041,735.0773,402.4086,732.41,411.8894" style="stroke:#000000;stroke-width:1;"/><text fill="#000000" font-family="Verdana" font-size="13" lengthAdjust="spacing" textLength="186.7925" x="827.46" y="309.2763">HTTPS (Webhooks/Long Poll)</text></g><!--link mtproto_gw to auth_svc--><g class="link" data-entity-1="ent0015" data-entity-2="ent0019" data-link-type="dependency" data-source-line="93" id="lnk35"><path d="M463.01,475.1294 C455.29,484.4794 448.09,495.3494 444,506.7994 C429.52,547.3394 436.4181,592.6231 443.3081,621.5131" fill="none" id="mtproto_gw-to-auth_svc" style="stroke:#000000;stroke-width:1;"/><polygon fill="#000000" points="444.7,627.3494,446.503,617.667,443.5401,622.4858,438.7213,619.5228,444.7,627.3494" style="stroke:#000000;stroke-width:1;"/><text fill="#000000" font-family="Verdana" font-size="13" lengthAdjust="spacing" textLength="112.3662" x="445" y="519.8663">RPC (TL-Schema)</text></g><!--link mtproto_gw to msg_svc--><g class="link" data-entity-1="ent0015" data-entity-2="ent0020" data-link-type="dependency" data-source-line="94" id="lnk36"><path d="M533.06,475.1794 C543.28,484.6094 553.77,495.4994 562,506.7994 C590.2,545.4994 609.0871,592.2936 619.5271,621.7736" fill="none" id="mtproto_gw-to-msg_svc" style="stroke:#000000;stroke-width:1;"/><polygon fill="#000000" points="621.53,627.4294,622.2961,617.6104,619.8609,622.7162,614.755,620.2809,621.53,627.4294" style="stroke:#000000;stroke-width:1;"/><text fill="#000000" font-family="Verdana" font-size="13" lengthAdjust="spacing" textLength="112.3662" x="572.62" y="519.8663">RPC (TL-Schema)</text></g><!--link mtproto_gw to media_svc--><g class="link" data-entity-1="ent0015" data-entity-2="ent0022" data-link-type="dependency" data-source-line="95" id="lnk37"><path d="M396.86,460.5894 C367.98,469.7594 338.63,484.1694 318,506.7994 C287.35,540.4094 281.9908,590.2301 281.5208,621.3001" fill="none" id="mtproto_gw-to-media_svc" style="stroke:#000000;stroke-width:1;"/><polygon fill="#000000" points="281.43,627.2994,285.5657,618.3609,281.5056,622.2999,277.5666,618.2399,281.43,627.2994" style="stroke:#000000;stroke-width:1;"/><text fill="#000000" font-family="Verdana" font-size="13" lengthAdjust="spacing" textLength="112.3662" x="319" y="519.8663">RPC (TL-Schema)</text></g><!--link bot_gw to msg_svc--><g class="link" data-entity-1="ent0016" data-entity-2="ent0020" data-link-type="dependency" data-source-line="96" id="lnk38"><path d="M716.26,475.1794 C719.33,490.1194 720.86,508.1894 716,523.7994 C703.27,564.6994 676.168,599.6025 654.818,623.1725" fill="none" id="bot_gw-to-msg_svc" style="stroke:#000000;stroke-width:1;"/><polygon fill="#000000" points="650.79,627.6194,659.7967,623.6344,654.1467,623.9136,653.8675,618.2637,650.79,627.6194" style="stroke:#000000;stroke-width:1;"/><text fill="#000000" font-family="Verdana" font-size="13" lengthAdjust="spacing" textLength="112.3662" x="719.95" y="519.8663">RPC (TL-Schema)</text></g><!--link auth_svc to sharded_db--><g class="link" data-entity-1="ent0019" data-entity-2="ent0029" data-link-type="dependency" data-source-line="99" id="lnk39"><path d="M449.18,674.3094 C448.73,696.4894 452.03,729.6194 473,747.0994 C487.95,759.5594 629.78,748.2394 648,755.0994 C674.7,765.1394 695.4168,781.2488 713.4968,798.6488" fill="none" id="auth_svc-to-sharded_db" style="stroke:#000000;stroke-width:1;"/><polygon fill="#000000" points="717.82,802.8094,714.109,793.6864,714.2174,799.3422,708.5616,799.4506,717.82,802.8094" style="stroke:#000000;stroke-width:1;"/><text fill="#000000" font-family="Verdana" font-size="13" lengthAdjust="spacing" textLength="103.4731" x="474" y="743.1663">Native DB Proto</text></g><!--link msg_svc to sharded_db--><g class="link" data-entity-1="ent0020" data-entity-2="ent0029" data-link-type="dependency" data-source-line="100" id="lnk40"><path d="M608.87,674.2194 C592.51,695.0894 574.86,726.1294 593,747.0994 C601.08,756.4394 636.67,750.1794 648,755.0994 C673.77,766.2794 694.0688,781.9807 712.2088,798.8707" fill="none" id="msg_svc-to-sharded_db" style="stroke:#000000;stroke-width:1;"/><polygon fill="#000000" points="716.6,802.9594,712.7389,793.8989,712.9406,799.5522,707.2874,799.7539,716.6,802.9594" style="stroke:#000000;stroke-width:1;"/><text fill="#000000" font-family="Verdana" font-size="13" lengthAdjust="spacing" textLength="103.4731" x="594" y="743.1663">Native DB Proto</text></g><!--link chan_svc to sharded_db--><g class="link" data-entity-1="ent0021" data-entity-2="ent0029" data-link-type="dependency" data-source-line="101" id="lnk41"><path d="M810.78,674.5594 C797.6,706.8594 775.6252,760.7434 760.8252,797.0434" fill="none" id="chan_svc-to-sharded_db" style="stroke:#000000;stroke-width:1;"/><polygon fill="#000000" points="758.56,802.5994,765.6618,795.7756,760.4477,797.9694,758.2539,792.7553,758.56,802.5994" style="stroke:#000000;stroke-width:1;"/><text fill="#000000" font-family="Verdana" font-size="13" lengthAdjust="spacing" textLength="103.4731" x="788.43" y="743.1663">Native DB Proto</text></g><!--link media_svc to dfs--><g class="link" data-entity-1="ent0022" data-entity-2="ent0030" data-link-type="dependency" data-source-line="104" id="lnk42"><path d="M265.34,674.4394 C251.71,695.7594 237.46,727.3894 256,747.0994 C265.99,757.7194 373,751.0294 387,755.0994 C422.28,765.3394 453.4356,782.2463 480.4656,799.5363" fill="none" id="media_svc-to-dfs" style="stroke:#000000;stroke-width:1;"/><polygon fill="#000000" points="485.52,802.7694,480.0938,794.5501,481.308,800.0751,475.783,801.2893,485.52,802.7694" style="stroke:#000000;stroke-width:1;"/><text fill="#000000" font-family="Verdana" font-size="13" lengthAdjust="spacing" textLength="84.4111" x="257" y="743.1663">File I/O (TCP)</text></g><!--link msg_svc to cache--><g class="link" data-entity-1="ent0020" data-entity-2="ent0027" data-link-type="dependency" data-source-line="107" id="lnk43"><path d="M605.97,674.5794 C587.78,690.9094 560.89,711.8194 533,722.0994 C488.25,738.5794 469.98,711.6594 426,730.0994 C388.33,745.8794 358.2886,774.147 336.5586,798.567" fill="none" id="msg_svc-to-cache" style="stroke:#000000;stroke-width:1;stroke-dasharray:7,7;"/><polygon fill="#000000" points="332.57,803.0494,341.5411,798.9849,335.8938,799.3141,335.5646,793.6668,332.57,803.0494" style="stroke:#000000;stroke-width:1;"/><text fill="#000000" font-family="Verdana" font-size="13" lengthAdjust="spacing" textLength="24.8574" x="427" y="743.1663">TCP</text></g><!--link chan_svc to cache--><g class="link" data-entity-1="ent0021" data-entity-2="ent0027" data-link-type="dependency" data-source-line="108" id="lnk44"><path d="M800.92,674.1994 C779.53,697.3194 742.5,732.1694 702,747.0994 C641.3,769.4594 472.02,733.5994 411,755.0994 C383.25,764.8694 361.3574,781.1 342.2674,798.56" fill="none" id="chan_svc-to-cache" style="stroke:#000000;stroke-width:1;stroke-dasharray:7,7;"/><polygon fill="#000000" points="337.84,802.6094,347.1808,799.4869,341.5295,799.2349,341.7816,793.5836,337.84,802.6094" style="stroke:#000000;stroke-width:1;"/><text fill="#000000" font-family="Verdana" font-size="13" lengthAdjust="spacing" textLength="24.8574" x="736.05" y="743.1663">TCP</text></g><!--link auth_svc to cache--><g class="link" data-entity-1="ent0019" data-entity-2="ent0027" data-link-type="dependency" data-source-line="109" id="lnk45"><path d="M432.37,674.4494 C417.22,690.9394 394.27,712.1194 369,722.0994 C350.48,729.4094 203.76,715.7094 190,730.0994 C162.71,758.6294 198.7993,785.345 239.9093,805.435" fill="none" id="auth_svc-to-cache" style="stroke:#000000;stroke-width:1;stroke-dasharray:7,7;"/><polygon fill="#000000" points="245.3,808.0694,238.9702,800.524,240.8077,805.874,235.4576,807.7116,245.3,808.0694" style="stroke:#000000;stroke-width:1;"/><text fill="#000000" font-family="Verdana" font-size="13" lengthAdjust="spacing" textLength="24.8574" x="191" y="743.1663">TCP</text></g><!--link msg_svc to kafka--><g class="link" data-entity-1="ent0020" data-entity-2="ent0025" data-link-type="dependency" data-source-line="112" id="lnk46"><path d="M651.85,674.4694 C670.21,690.9694 697.55,712.1594 726,722.0994 C762.54,734.8594 862.1,722.2094 900,730.0994 C901.37,730.3794 1026.9853,778.3477 1106.3053,808.6577" fill="none" id="msg_svc-to-kafka" style="stroke:#000000;stroke-width:1;"/><polygon fill="#000000" points="1111.91,810.7994,1104.9307,803.8503,1107.2394,809.0146,1102.0751,811.3233,1111.91,810.7994" style="stroke:#000000;stroke-width:1;"/><text fill="#000000" font-family="Verdana" font-size="13" lengthAdjust="spacing" textLength="104.5522" x="941.16" y="743.1663">Publish Updates</text></g><!--link chan_svc to kafka--><g class="link" data-entity-1="ent0021" data-entity-2="ent0025" data-link-type="dependency" data-source-line="113" id="lnk47"><path d="M842.04,674.3894 C859.77,690.8594 886.25,712.0194 914,722.0994 C944.34,733.0994 1029.28,717.5294 1059,730.0994 C1099.69,747.2994 1131.2334,781.3091 1150.8334,806.1491" fill="none" id="chan_svc-to-kafka" style="stroke:#000000;stroke-width:1;"/><polygon fill="#000000" points="1154.55,810.8594,1152.1152,801.3162,1151.4528,806.9342,1145.8349,806.2717,1154.55,810.8594" style="stroke:#000000;stroke-width:1;"/><text fill="#000000" font-family="Verdana" font-size="13" lengthAdjust="spacing" textLength="104.5522" x="1088.81" y="743.1663">Publish Updates</text></g><!--link push_svc to kafka--><g class="link" data-entity-1="ent0023" data-entity-2="ent0025" data-link-type="dependency" data-source-line="114" id="lnk48"><path d="M1146.43,664.2494 C1227.88,676.0494 1330.09,697.0194 1356,730.0994 C1389.57,772.9494 1328.3163,799.3062 1265.7363,815.1562" fill="none" id="push_svc-to-kafka" style="stroke:#000000;stroke-width:1;"/><polygon fill="#000000" points="1259.92,816.6294,1269.6266,818.2972,1264.767,815.4018,1267.6624,810.5421,1259.92,816.6294" style="stroke:#000000;stroke-width:1;"/><text fill="#000000" font-family="Verdana" font-size="13" lengthAdjust="spacing" textLength="63.8701" x="1365.43" y="743.1663">Subscribe</text></g><!--link kafka to push_svc--><g class="link" data-entity-1="ent0025" data-entity-2="ent0023" data-link-type="dependency" data-source-line="117" id="lnk49"><path d="M1188.87,811.0594 C1204.07,789.1494 1221.08,755.4394 1205,730.0994 C1188.36,703.8694 1165.8649,688.5816 1137.5149,676.8616" fill="none" id="kafka-to-push_svc" style="stroke:#000000;stroke-width:1;stroke-dasharray:7,7;"/><polygon fill="#000000" points="1131.97,674.5694,1138.7591,681.7044,1136.5907,676.4796,1141.8155,674.3112,1131.97,674.5694" style="stroke:#000000;stroke-width:1;"/><text fill="#000000" font-family="Verdana" font-size="13" lengthAdjust="spacing" textLength="109.0908" x="1211.87" y="743.1663">Consume Events</text></g><!--link auth_svc to sms_prov--><g class="link" data-entity-1="ent0019" data-entity-2="ent0011" data-link-type="dependency" data-source-line="120" id="lnk50"><path d="M469.22,674.3594 C484.32,691.0394 507.38,712.5094 533,722.0994 C580.04,739.7094 1389.11,714.9694 1437,730.0994 C1482.53,744.4794 1522.0189,773.8734 1550.4589,798.8134" fill="none" id="auth_svc-to-sms_prov" style="stroke:#000000;stroke-width:1;"/><polygon fill="#000000" points="1554.97,802.7694,1550.8406,793.828,1551.2107,799.4727,1545.566,799.8428,1554.97,802.7694" style="stroke:#000000;stroke-width:1;"/><text fill="#000000" font-family="Verdana" font-size="13" lengthAdjust="spacing" textLength="81.2881" x="1474.43" y="743.1663">SMPP / HTTP</text></g><!--link push_svc to push_prov--><g class="link" data-entity-1="ent0023" data-entity-2="ent0012" data-link-type="dependency" data-source-line="121" id="lnk51"><path d="M1146.5,653.0994 C1268.01,657.3294 1470.23,673.3094 1634,730.0994 C1674.74,744.2194 1707.8257,773.2616 1731.5057,798.2816" fill="none" id="push_svc-to-push_prov" style="stroke:#000000;stroke-width:1;"/><polygon fill="#000000" points="1735.63,802.6394,1732.3486,793.3532,1732.193,799.0079,1726.5383,798.8523,1735.63,802.6394" style="stroke:#000000;stroke-width:1;"/><text fill="#000000" font-family="Verdana" font-size="13" lengthAdjust="spacing" textLength="125.8042" x="1667.17" y="743.1663">HTTP/2 (APNs/FCM)</text></g><?plantuml-src bLPBRzj64BxpLsnLe1KF2e6Yfo0me8UT6f5imbIQWnC8At8iBaJkihjBoKBW_zxP1ocIaPtM1y7ScVdcc-VkBpg74aXLKCQ3GEqPhwYa9U4Y0_8z86H6q_rEYffdSr48IRxaJ4DIYZqOeP0PI2TOKBcV5RKvdaefZkxqrp_jN_3I1Kz5MGaENB_kOG0-Ar1f05A8Ehi8i6IxNCzFb5zWQ8zxE1dLT4iL_7ykcka2o1eAs1cW1LI5E9Kch0MZzcWSvoV5KbgGlnaSmo3udKmc4p8lcD5QCv3cEx397drM-9cKLEegn-oCo8SF6HnO2bTNX2edYOt4CZtdyB5bi19RXeocLVMLZzbz4arv9WNBmcy6eBJI3QqgGxxZSuvGjGOvzDYSl-fl0MglHMKSMW-P-xOkY6kXqHVOaXcsWtBuy0nfhPdW1FY1IS5Dlj2TSN7PYG5m2SEWy6CQuSyd5z8HjjxPYud9PVVw6Jbpp7b4rZcJ6OanSQTEektfn9qc80-EcRB_kSXdGZl1CFGM6pN8KknOQdd0izviXTuKviGmSSqvQjMlKw5EIaCv6Y8cguJ4KXmOzfV22DT7LZ0HtUDSIkMYLANQLAZIDunhbLlwM2zZU3DVHTFupjjKA7L6B-UkCvnk-PEaIiiwrRK4cnLFjitunq9iaVD0SnnBXYru8ejvQA9eAtoTxG1pFHUSGsfBkwGdarEaOMK_r7QrneYr81-fXYCz8VcEyOfokWFfUrPNHdEpEmunJ06cyIsvmHxIm3C3KYijIcTegc6DNWnHdm3NpvW8LFIZrmGnb8snfyartp4EuQWp33uOPnIBp0MkSNkQY9smntDQwxPCbXd5Wuqwf3-gha0f3BsdNQhTPULvJZ5bHKyvnRFNe3D6-y3cvBAoxQmxeTaJhYvRawwXxQp6xgMVuHNBiW9BYkto6wvRJNivlZuO-5cjcYpRnE9os8EyQ-uRGlwfeGRo-8a-xIcczvOt8rShIs1l18rVXtpB9oie1JPd5tbEqnmwmDsfqzGKsoXWupnWBlpSfEQe3vve8KrPkj2BMMS_aFCTyfZa56-AZ61vy1gOjLtPz98RQAUqoRO3wmN3UMDRxBECt9XLdjYbWIXBWRT8z811QW-IFQd-tdk0mbPBvQnIDl4ey5SD3jjmdFqGXi7vNa2Zgyx8aVUacTJnUXv7zzkdMc57G1O6dLN_jbKO-2NzXXekz4IaUz3HN-jrdDXxihjfrIN-NhMtUgqFD_g8RpKiUYx4NaLBmNSa5aLX7VZbux6ziuTu7dGu6hXcNX4GfHZJSf9WZvGq76hwMVqFYitiNL3rxD_6G_f-90tx66yAR1pW-3asKnS6BMc3SsutXBh37Za0jYQnoGyQ9pzLR9RBppNxxFpgSKCKd4CtCDZ3Q6yx_JQwz_tIDxSpYjN6DnrH5U1Wq1GlF1MspD-zkt9ZYr08S2Ow5BH96Gg6XCqQPjWhuwawyJJivSXk7xIBwst1S4z-hd1yGVNJyvfIipjxIaczLIbEFHWUlRLxKuXZuDGCvTRwlRbpL8tlThjIrI20TdJQTyMW7_nxmlXUnJ7kM3CfVNBj-y7FKVG7PWDV5n4-Cy9_0G00?></g></svg>